<?xml version="1.0" standalone="no"?>
<!DOCTYPE svg PUBLIC "-//W3C//DTD SVG 20010904//EN"
 "http://www.w3.org/TR/2001/REC-SVG-20010904/DTD/svg10.dtd">
<svg version="1.0" xmlns="http://www.w3.org/2000/svg"
 width="468.000000pt" height="468.000000pt" viewBox="0 0 468.000000 468.000000"
 preserveAspectRatio="xMidYMid meet">

<g transform="translate(0.000000,468.000000) scale(0.100000,-0.100000)"
fill="#000000" stroke="none">
<path d="M0 4590 c0 -78 3 -91 18 -96 44 -14 108 -54 337 -213 298 -206 385
-269 385 -281 0 -5 -18 -15 -40 -21 -22 -7 -40 -15 -40 -18 0 -3 25 -19 56
-35 30 -16 94 -52 142 -79 48 -28 119 -67 157 -88 104 -56 100 -69 -25 -69
-88 0 -107 3 -150 25 -37 19 -65 25 -110 25 -49 0 -72 6 -118 31 -96 51 -145
84 -150 98 -3 9 0 11 7 7 8 -6 10 0 6 21 -5 19 -4 24 3 14 14 -19 26 20 17 58
-11 50 38 78 81 46 10 -8 33 -14 49 -14 l30 -1 -25 20 c-14 11 -29 20 -33 20
-4 0 -13 5 -20 10 -27 23 -72 54 -296 204 -128 87 -244 169 -257 184 l-23 27
-1 -2232 0 -2233 406 0 407 0 24 26 c27 30 57 28 61 -4 l3 -22 610 0 c399 0
609 3 609 10 0 6 7 10 15 10 8 0 15 -4 15 -10 0 -6 39 -10 97 -10 94 0 96 0
79 19 -10 11 -39 24 -64 30 -49 11 -68 11 -90 -2 -16 -11 -65 -5 -74 8 -4 5
-8 22 -8 36 0 28 -19 39 -71 39 -46 0 -54 22 -56 152 -2 65 -7 127 -12 137 -6
10 -8 21 -4 24 3 4 1 13 -5 20 -7 8 -10 16 -7 19 3 2 -6 15 -20 28 -17 16 -25
33 -24 54 l2 31 7 -35 7 -35 2 38 c1 25 -3 37 -13 37 -7 0 -16 9 -19 20 -4 17
0 20 23 20 16 0 32 -5 35 -10 11 -18 26 -10 23 12 -3 21 -8 23 -70 23 -200 -1
-432 -7 -422 -11 12 -5 5 -77 -18 -178 l-13 -58 -44 5 c-24 3 -46 9 -50 15 -3
6 -18 13 -31 17 -25 6 -26 9 -24 78 1 40 6 99 12 132 17 103 23 207 12 200 -6
-4 -8 -9 -6 -13 2 -4 -48 -5 -111 -4 l-115 4 5 -99 c6 -103 9 -128 21 -154 13
-30 -10 -64 -53 -79 -37 -12 -43 -11 -60 4 -17 15 -19 28 -16 80 12 179 14
280 4 264 -8 -15 -25 -18 -94 -18 l-85 0 0 -114 c0 -63 -3 -121 -6 -130 -8
-21 -77 -22 -94 -1 -10 12 -11 42 -7 118 9 140 1 163 -78 229 -71 59 -70 55
-55 178 4 43 4 82 -1 91 -8 15 -76 49 -99 49 -6 0 -10 -7 -10 -15 0 -8 -9 -15
-20 -15 -13 0 -20 7 -20 20 0 13 -7 20 -20 20 -13 0 -20 7 -20 20 0 11 6 20
14 20 8 0 17 11 20 24 3 13 16 26 28 30 17 4 20 8 10 14 -10 7 -10 11 1 20 10
9 14 36 13 104 -1 51 1 105 5 121 4 15 4 27 -2 27 -5 0 -9 8 -9 18 0 15 2 15
11 2 8 -12 10 -9 6 12 -2 15 0 29 4 30 5 2 9 18 11 35 1 20 8 33 16 33 7 0 10
-5 7 -10 -3 -6 1 -13 9 -16 9 -3 16 -12 16 -20 0 -8 4 -14 9 -14 5 0 8 -7 7
-16 0 -9 5 -19 11 -21 12 -4 30 29 38 70 2 9 7 23 12 30 4 6 6 24 4 39 -1 17
4 30 16 37 10 6 12 11 6 11 -7 0 -13 11 -13 25 0 18 -6 25 -20 27 -11 0 -26 1
-32 2 -7 1 -12 -5 -10 -12 1 -8 -2 -11 -7 -8 -5 3 -12 -5 -15 -18 -5 -21 -9
-22 -51 -16 -25 4 -45 3 -45 -2 0 -4 -9 -8 -21 -8 -11 0 -17 -5 -14 -10 4 -6
-10 -17 -30 -26 -20 -8 -33 -19 -30 -25 4 -6 -3 -7 -20 -3 -18 4 -30 2 -36 -7
-5 -8 -9 -9 -9 -4 0 6 -25 11 -55 12 -46 2 -56 -1 -65 -17 -9 -17 -21 -20 -81
-20 -44 0 -68 4 -64 10 3 6 13 10 21 10 19 0 42 22 37 35 -4 14 72 34 89 24 9
-6 5 -9 -12 -9 -14 0 -32 -5 -40 -10 -12 -8 -12 -10 5 -9 35 0 120 26 105 31
-11 4 -12 9 -4 17 8 9 18 9 39 -1 20 -9 30 -9 32 -2 2 6 10 20 18 30 11 14 17
16 23 7 6 -10 17 -10 47 -1 22 6 44 11 48 10 4 -1 18 4 29 12 15 11 26 12 40
5 13 -7 24 -6 41 6 13 10 16 16 7 14 -28 -3 -63 1 -58 7 6 5 53 10 124 13 31
1 58 31 34 39 -8 3 -7 8 1 18 9 11 9 14 -1 14 -7 0 -10 6 -7 14 3 8 -1 17 -9
20 -8 3 -13 11 -12 18 2 7 -5 12 -14 10 -20 -3 -22 6 -8 28 8 12 10 12 10 1 0
-11 3 -11 16 0 15 12 14 14 -7 20 l-24 7 23 1 23 1 -25 27 -25 27 -30 -22
c-17 -12 -35 -22 -41 -22 -5 0 -10 -8 -10 -17 0 -15 -2 -14 -15 3 -8 10 -15
30 -15 42 0 43 -25 17 -31 -34 -6 -42 -7 -37 -7 31 0 44 -4 91 -9 105 -6 13
-7 33 -4 45 5 19 6 19 9 -3 2 -13 9 -21 15 -19 15 5 29 71 16 75 -5 2 -9 15
-9 29 0 26 -29 83 -42 83 -4 0 -8 7 -8 15 0 9 -7 18 -15 21 -23 9 -19 51 5 57
29 7 25 25 -10 45 -17 9 -33 25 -36 34 -9 29 -49 33 -83 9 -16 -12 -39 -21
-51 -21 -20 0 -22 -4 -18 -40 3 -40 3 -40 -31 -40 -32 0 -33 -1 -28 -33 5 -32
4 -33 -34 -34 -21 -1 -41 2 -44 6 -3 5 0 33 5 62 10 50 9 55 -11 70 -22 16
-22 17 -3 41 11 14 25 23 33 20 7 -2 16 -1 20 4 8 12 42 33 64 40 9 4 17 10
17 15 0 5 17 9 39 9 22 0 44 6 51 15 7 8 22 15 33 15 30 0 90 23 103 39 6 8
16 11 21 8 16 -10 59 14 111 64 9 9 27 20 39 23 13 4 22 10 21 14 -1 4 2 19 5
35 4 15 9 38 12 51 3 14 14 28 25 31 11 3 20 13 20 20 0 20 48 43 109 51 35 4
48 10 39 15 -9 6 -3 9 17 10 17 0 24 3 17 6 -6 2 -10 9 -6 14 3 5 -3 9 -13 9
-17 1 -17 1 0 11 9 5 17 21 17 34 0 16 6 25 16 25 11 0 15 -6 11 -19 -4 -16 3
-19 52 -24 31 -3 60 -2 65 3 13 13 -1 41 -24 47 -12 3 -19 11 -17 17 5 15 47
21 48 7 1 -6 2 -17 3 -23 1 -7 14 -13 29 -13 l29 1 -3 -76 c-3 -90 6 -124 29
-115 31 12 36 10 40 -11 2 -18 10 -22 36 -21 33 1 34 2 40 51 4 28 7 121 7
206 1 85 3 167 6 183 5 26 7 27 74 27 l69 0 0 -40 0 -40 -41 0 -42 0 5 -97 c3
-54 9 -106 13 -115 4 -9 28 -21 56 -28 l49 -12 0 -43 c0 -23 7 -56 15 -71 8
-16 15 -37 15 -46 0 -9 6 -21 13 -25 10 -5 17 -47 24 -128 5 -66 8 -123 6
-127 -2 -5 -40 -8 -83 -8 l-79 0 -3 -52 -3 -53 -42 -3 c-25 -2 -43 -8 -44 -15
0 -7 0 -55 0 -107 1 -86 0 -93 -14 -76 -8 11 -15 26 -15 33 0 7 -11 13 -25 13
-19 0 -26 7 -33 33 -7 25 -14 32 -33 32 -20 0 -25 6 -27 33 -3 25 -8 32 -24
32 -20 0 -21 4 -15 71 3 39 9 74 12 78 4 3 38 6 76 6 59 0 69 -3 69 -17 0 -20
13 -23 40 -8 22 12 16 42 -6 33 -8 -3 -25 2 -39 11 -13 9 -33 16 -45 16 -15 0
-20 7 -20 26 0 25 -2 26 -41 21 -36 -5 -40 -3 -36 13 3 11 -1 24 -9 31 -20 17
-17 39 5 39 10 0 21 7 25 15 3 8 14 15 25 15 11 0 23 4 26 10 3 5 19 7 35 3
27 -5 30 -3 30 20 0 24 -2 25 -74 26 -42 1 -77 -3 -81 -9 -3 -6 -7 -24 -7 -42
l-1 -31 -19 27 c-25 33 -40 33 -36 0 3 -23 -3 -29 -32 -40 -19 -7 -50 -13 -67
-13 -29 -1 -33 2 -33 24 0 18 -5 25 -19 25 -32 0 -51 11 -51 30 0 13 -11 19
-46 24 -69 9 -74 8 -74 -15 0 -19 4 -20 34 -15 l35 7 3 -43 c3 -38 6 -43 26
-41 19 2 22 -2 22 -31 0 -31 -3 -35 -37 -43 -33 -8 -38 -13 -41 -41 -4 -35
-18 -41 -37 -15 -11 15 -13 15 -24 -5 -7 -14 -21 -22 -38 -22 -24 0 -25 -1
-10 -24 15 -23 15 -24 -7 -30 -19 -5 -23 -13 -24 -51 -2 -44 -1 -45 28 -45 27
0 30 3 30 30 0 22 5 30 18 30 9 0 30 7 46 15 40 21 65 19 75 -7 7 -19 4 -25
-18 -33 -24 -9 -26 -14 -23 -60 4 -85 8 -92 41 -87 26 4 30 1 33 -24 2 -23 9
-30 31 -32 31 -4 34 10 18 94 -5 27 -11 83 -12 124 -2 74 -2 75 23 75 23 -1
25 2 15 22 -8 17 -7 27 2 36 17 17 33 -10 26 -43 -15 -63 -16 -77 -6 -103 10
-26 15 -28 53 -25 40 3 44 1 59 -31 8 -18 23 -38 32 -43 9 -5 17 -14 17 -21 0
-7 8 -28 18 -47 11 -19 22 -54 26 -78 5 -35 3 -44 -11 -49 -21 -8 -33 -22 -33
-40 0 -9 18 -13 56 -13 53 0 55 -1 70 -35 25 -60 21 -65 -46 -65 -36 0 -60 4
-60 11 0 6 -9 8 -21 4 -19 -6 -20 -3 -19 42 1 26 1 54 1 61 -2 19 -18 14 -24
-8 -5 -18 -7 -19 -37 -4 -33 17 -47 14 -34 -8 5 -7 9 -18 10 -25 1 -7 13 -23
27 -35 14 -13 28 -33 31 -44 6 -19 0 -23 -41 -34 -43 -11 -46 -13 -25 -21 18
-7 23 -15 20 -36 -2 -23 -8 -29 -35 -31 -23 -2 -30 -7 -26 -18 4 -11 -4 -14
-35 -14 -33 0 -41 -4 -46 -22 -8 -32 -7 -98 2 -99 4 0 26 -2 49 -4 62 -5 86
-27 42 -38 -14 -4 -20 -11 -16 -20 6 -16 -64 -50 -86 -42 -19 7 -38 -10 -32
-28 8 -20 53 -30 99 -21 34 6 36 5 36 -20 0 -26 0 -26 -79 -26 l-79 0 -21 -91
c-12 -50 -21 -102 -21 -116 0 -13 -9 -59 -19 -101 -10 -43 -33 -143 -51 -224
l-32 -148 63 -57 c99 -92 111 -97 209 -94 47 1 88 8 91 13 4 6 12 37 18 69 7
33 13 59 15 59 2 0 36 -32 77 -70 l73 -70 72 0 c81 0 83 1 99 75 l11 50 17
-28 c9 -15 24 -38 33 -52 8 -14 26 -30 39 -35 24 -9 25 -18 11 -119 -3 -16 6
-32 28 -52 l31 -28 362 -1 363 0 -12 -26 c-10 -20 -9 -27 2 -34 18 -11 34 13
27 41 -5 18 6 19 401 21 224 2 471 3 549 3 137 0 142 1 168 25 26 24 27 28 20
98 l-7 72 97 0 c83 0 101 3 123 21 l27 21 3 -26 3 -25 192 -3 c219 -3 209 -6
311 91 l57 53 -12 99 -12 99 -61 0 -60 0 38 39 38 38 -18 87 c-15 78 -15 88
-1 104 14 15 14 25 2 82 -7 36 -16 82 -19 103 -6 30 -11 37 -30 37 -21 0 -24
5 -30 71 -3 39 -13 81 -21 92 -9 13 -15 45 -15 83 0 61 -1 63 -30 69 -16 4
-30 13 -30 21 0 9 -11 14 -30 14 -27 0 -30 3 -30 30 0 17 7 33 17 39 29 16 8
24 -62 25 -36 1 -65 2 -65 4 0 2 28 30 62 63 49 46 60 61 50 71 -9 9 -22 7
-57 -10 -25 -12 -48 -22 -51 -22 -4 0 -3 16 1 36 4 26 3 34 -5 29 -7 -4 -16
-1 -21 6 -22 36 47 229 82 229 12 0 19 7 19 19 0 25 18 36 48 32 45 -5 96 73
62 94 -5 3 -10 22 -10 41 0 31 3 34 28 34 36 0 45 -9 30 -28 -10 -11 -9 -17 5
-27 15 -10 17 -24 12 -81 -3 -38 -11 -102 -19 -142 l-14 -72 24 0 c18 0 23 6
26 32 3 29 6 32 37 33 37 0 41 7 54 97 5 33 3 39 -17 44 -18 4 -22 11 -18 30
3 18 11 24 31 24 15 0 31 -4 36 -9 6 -5 21 -11 35 -13 21 -2 25 -8 22 -30 -3
-26 0 -28 38 -28 22 0 40 1 41 3 0 1 2 21 5 45 5 39 4 42 -18 42 -12 0 -29 4
-37 9 -11 7 -7 14 20 30 l34 21 -68 0 c-67 0 -68 0 -65 26 3 22 -3 28 -37 40
-22 7 -48 14 -59 14 -12 0 -16 5 -12 16 3 9 6 24 6 34 0 10 9 20 20 23 15 4
20 14 20 36 0 28 3 31 29 31 28 0 41 14 41 46 0 8 -5 14 -11 14 -5 0 -7 -4 -4
-10 4 -6 -11 -10 -37 -10 -51 0 -71 -11 -62 -33 4 -13 1 -17 -14 -17 -36 0
-52 -11 -52 -36 0 -19 -5 -24 -26 -24 -19 0 -25 -4 -22 -20 2 -10 -1 -19 -7
-19 -5 -1 -10 12 -10 27 0 23 -4 27 -27 25 -25 -2 -28 1 -28 31 l0 34 -75 11
c-110 16 -132 15 -138 -9 -3 -11 -2 -20 1 -20 45 -3 89 -14 98 -26 6 -8 19
-14 28 -14 9 0 16 -8 16 -20 0 -16 -7 -20 -35 -20 -19 0 -35 -5 -35 -10 0 -6
11 -8 25 -4 19 5 25 2 25 -10 0 -11 -9 -16 -29 -16 -21 0 -32 -6 -36 -20 -3
-11 -14 -20 -24 -20 -10 0 -24 -6 -31 -14 -6 -8 -24 -16 -38 -18 -37 -4 -38
-42 -1 -46 20 -2 28 2 32 19 5 17 11 20 31 15 14 -3 28 -2 31 4 10 16 41 11
60 -10 15 -17 16 -24 7 -45 -9 -20 -9 -25 2 -25 9 0 11 -10 7 -37 -6 -31 -11
-38 -29 -37 -18 0 -22 -5 -22 -33 0 -28 -3 -33 -25 -33 -19 0 -26 -7 -33 -32
-6 -26 -14 -34 -35 -36 -18 -2 -27 -9 -27 -21 0 -10 -6 -24 -14 -30 -10 -9
-20 -5 -45 18 -37 35 -38 39 -6 51 24 9 25 12 25 110 l0 100 -35 0 c-35 0 -35
0 -35 45 l0 44 -77 -3 c-43 -2 -87 -7 -97 -12 -13 -5 -21 -3 -24 5 -3 8 -9 5
-19 -8 -11 -16 -25 -21 -58 -21 -24 0 -47 -4 -50 -10 -3 -5 -23 -10 -43 -10
-20 0 -43 -4 -50 -8 -18 -12 -4 -69 19 -75 25 -7 24 -23 -1 -30 -15 -4 -20
-13 -18 -34 4 -66 -2 -111 -18 -117 -8 -3 -13 -2 -9 3 3 5 0 11 -7 13 -16 6
-31 208 -16 225 5 7 8 18 5 25 -4 8 -6 7 -6 -4 -1 -27 -81 -26 -81 1 0 10 -7
36 -16 57 -9 22 -14 52 -11 71 3 18 3 33 -1 33 -4 0 -16 23 -27 50 -19 48 -21
50 -50 44 -41 -9 -56 -24 -22 -24 20 0 27 -5 27 -20 0 -11 -4 -20 -10 -20 -11
0 -13 -62 -4 -97 3 -11 14 -23 25 -26 16 -4 18 -13 15 -54 -3 -32 -9 -48 -18
-48 -8 0 -12 10 -11 28 2 30 -3 32 -41 17 -23 -9 -26 -7 -26 14 0 19 -5 24
-26 24 -15 0 -30 5 -34 12 -6 9 -15 0 -29 -29 -22 -43 -21 -61 4 -61 11 0 10
-8 -6 -35 -22 -36 -33 -43 -44 -25 -10 17 -25 11 -25 -10 0 -19 7 -20 93 -20
91 0 167 -13 167 -29 0 -11 -78 -21 -171 -21 -98 0 -129 -11 -129 -45 0 -14
-6 -28 -14 -31 -10 -4 -17 -32 -22 -92 -4 -48 -10 -99 -15 -114 -6 -21 -4 -28
6 -28 7 0 27 -14 44 -31 22 -22 31 -40 31 -64 0 -28 4 -34 28 -40 23 -6 264
-8 312 -2 27 2 114 -15 141 -29 17 -9 69 -13 159 -13 110 -1 136 -4 152 -17
27 -25 22 -33 -24 -36 -34 -2 -43 -7 -46 -23 -8 -56 -12 -63 -41 -67 -31 -5
-41 9 -41 60 0 19 -5 22 -39 22 l-38 0 1 -150 2 -150 -38 0 -37 0 -3 148 -3
147 -147 3 c-102 2 -148 -1 -148 -8 0 -6 -10 -10 -22 -8 -19 2 -24 -2 -26 -24
-2 -16 -8 -28 -13 -28 -5 0 -9 -50 -9 -114 l0 -114 -32 -5 c-18 -2 -36 -3 -40
0 -5 2 -8 41 -9 86 -1 45 -5 93 -9 107 l-8 25 -1 -27 c-1 -21 -6 -28 -21 -28
-29 0 -43 -36 -38 -101 5 -62 0 -69 -48 -69 -25 0 -24 -4 -29 113 -1 15 -9 37
-18 47 -9 11 -17 29 -17 40 0 11 -6 20 -14 20 -15 0 -24 -49 -29 -160 -2 -61
6 -57 -99 -52 l-37 2 -3 112 -3 112 -28 7 c-39 10 -47 -11 -47 -130 l0 -101
-36 0 -35 0 6 64 5 65 -32 3 -33 3 -3 76 -3 77 -37 6 c-20 3 -97 6 -169 6
l-133 0 0 -58 0 -58 -35 4 -35 4 0 54 c0 29 -3 55 -7 57 -5 3 -22 2 -40 0
l-32 -5 -3 -77 -3 -76 -32 -3 -33 -3 0 75 c0 85 -4 92 -65 95 -29 1 -34 26 -7
40 10 5 52 13 93 16 41 4 103 12 139 18 36 6 163 12 284 13 120 2 225 5 232 8
8 3 14 26 16 58 3 51 4 53 35 56 29 3 31 6 35 50 2 26 2 80 0 120 -4 68 -6 72
-28 72 -21 0 -24 5 -24 38 0 24 -5 39 -12 40 -7 0 -58 6 -113 12 -55 6 -111
13 -125 14 -70 8 -67 6 -40 17 14 6 76 13 138 16 94 5 112 9 112 22 0 9 -4 22
-9 29 -7 11 -9 11 -14 0 -3 -10 -24 -15 -70 -15 l-65 -1 0 56 c-1 81 -1 82
-14 80 -9 -2 -14 13 -16 44 -3 44 -6 48 -38 60 -18 6 -34 15 -34 18 0 3 -22 5
-48 3 -34 -3 -53 1 -61 11 -6 7 -20 12 -31 9 -33 -9 -40 25 -32 158 l7 124 33
-3 c31 -3 32 -2 32 33 0 36 1 37 30 33 41 -6 33 14 -9 25 -38 9 -37 31 2 35
41 5 34 32 -8 32 -33 0 -35 2 -35 34 l0 34 -70 7 -71 7 3 32 c3 30 2 31 -44
34 -47 3 -48 4 -48 37 0 33 -2 34 -42 38 l-43 4 43 1 c41 2 42 3 42 37 0 32
-2 35 -29 35 -25 0 -30 5 -34 28 l-4 27 -2 -27 c-1 -27 -3 -28 -51 -28 l-50 0
0 -35 c0 -19 -5 -35 -11 -35 -6 0 -9 14 -6 35 5 35 5 35 -34 35 -37 0 -39 1
-45 40 -6 37 -9 40 -40 40 -33 0 -34 1 -34 39 l0 39 -75 7 -75 7 0 33 0 33 83
7 c45 4 98 5 117 3 32 -3 35 -6 40 -38 4 -31 9 -36 40 -40 28 -4 36 -10 39
-30 4 -31 17 -40 58 -40 29 0 32 3 35 33 3 31 4 32 53 33 28 1 63 7 78 13 35
14 202 15 227 1 13 -7 21 -7 25 0 4 6 10 8 15 5 9 -6 -40 86 -74 137 -20 31
-16 42 24 63 28 14 28 14 58 -33 46 -72 68 -132 52 -142 -8 -5 -15 -16 -16
-24 -1 -9 2 -14 6 -11 5 3 11 1 15 -5 8 -12 65 -1 87 17 22 19 77 32 160 38
38 2 77 9 88 15 13 7 77 9 180 7 130 -3 160 -2 160 9 0 8 9 14 20 14 13 0 20
-7 20 -20 0 -25 62 -66 115 -75 22 -3 50 -13 63 -21 18 -12 27 -13 38 -4 7 7
11 16 8 21 -3 5 3 6 12 2 28 -11 7 15 -27 33 -24 12 -29 19 -23 37 10 34 85
147 98 147 6 0 22 -9 35 -19 l25 -19 -27 -41 c-15 -23 -25 -47 -21 -53 4 -6 3
-8 -2 -5 -6 3 -15 -7 -21 -22 -10 -28 -10 -29 35 -35 25 -3 70 -6 101 -6 80
-1 218 -23 233 -38 6 -6 19 -12 27 -12 8 0 23 -7 33 -17 12 -10 18 -12 18 -4
0 7 5 9 10 6 6 -4 10 5 10 19 0 22 5 26 29 26 29 0 41 14 41 49 0 15 11 19 63
23 35 3 87 3 115 0 45 -4 53 -8 58 -28 10 -39 -2 -54 -43 -55 -113 -2 -108 -1
-111 -41 -3 -36 -5 -38 -38 -38 -33 0 -34 -1 -34 -40 0 -39 -1 -40 -36 -40
-34 0 -35 -1 -29 -29 3 -17 2 -32 -4 -36 -7 -4 -11 6 -11 28 l0 34 -86 7 c-47
3 -90 4 -95 0 -5 -3 -9 -2 -8 3 1 4 1 20 0 36 l-1 27 -116 0 -115 0 3 -37 3
-38 78 0 c61 0 76 -3 72 -13 -4 -11 4 -13 35 -9 l40 4 0 -63 0 -64 -75 0 -75
0 0 -34 c0 -33 -2 -35 -37 -38 -36 -3 -38 -5 -41 -40 -3 -33 -6 -37 -34 -40
-31 -3 -53 -28 -25 -28 8 0 20 -7 27 -15 10 -12 8 -16 -14 -25 -31 -12 -34
-26 -5 -33 11 -3 23 -15 26 -26 4 -15 13 -21 34 -21 l29 0 0 -80 c0 -74 2 -81
22 -89 22 -8 22 -8 -6 -35 -28 -25 -53 -36 -41 -17 3 5 -4 13 -15 16 -17 5
-19 10 -9 21 9 12 6 14 -20 14 -17 0 -31 -4 -31 -10 0 -5 -6 -10 -14 -10 -7 0
-16 -9 -19 -19 -4 -16 1 -21 22 -23 21 -2 28 -10 36 -43 8 -30 14 -40 28 -37
19 4 23 -18 7 -48 -8 -14 -5 -19 11 -23 11 -3 23 -15 26 -27 5 -20 10 -21 86
-16 44 3 102 9 128 12 l48 6 6 47 c4 25 11 58 17 73 6 15 7 39 4 54 -6 24 -5
26 19 20 l25 -6 0 89 0 90 33 15 c17 8 43 16 57 18 20 2 27 11 37 48 6 25 12
75 12 112 l1 67 -37 3 c-36 3 -38 5 -41 41 l-3 37 40 0 c40 0 41 -1 41 -35 0
-33 2 -35 35 -35 l35 0 0 -125 c0 -99 -3 -127 -14 -131 -25 -10 -28 -36 -6
-56 15 -14 20 -29 18 -51 -2 -27 -8 -33 -30 -35 -30 -4 -39 -22 -10 -22 9 0
34 -3 54 -6 35 -6 38 -4 51 28 13 32 17 34 51 30 l36 -4 0 79 c0 44 3 108 7
143 l6 63 -57 -5 c-31 -3 -52 -2 -46 2 6 4 12 20 13 36 1 16 8 29 15 28 6 -1
41 -2 76 -2 58 -2 65 -4 63 -22 -1 -20 -17 -29 -17 -10 0 21 -28 9 -32 -15 -4
-17 -1 -25 8 -25 8 0 14 -4 14 -9 0 -16 47 -40 67 -35 14 4 19 13 18 28 -2 12
5 33 15 47 16 21 20 22 25 7 4 -9 2 -25 -4 -37 -6 -11 -11 -29 -11 -40 0 -10
-6 -22 -12 -24 -8 -3 -6 -6 5 -6 9 -1 17 4 17 10 0 6 12 9 28 7 19 -2 27 -8
26 -20 -1 -11 5 -18 17 -18 11 0 19 -7 19 -16 0 -20 28 -43 53 -44 9 0 17 -3
17 -8 0 -4 17 -6 38 -4 35 3 39 0 72 -49 19 -28 42 -64 50 -80 8 -16 26 -32
40 -36 14 -3 36 -14 49 -25 13 -10 32 -18 43 -18 10 0 30 -11 43 -25 16 -18
25 -22 28 -13 3 8 6 5 6 -6 1 -11 4 -17 7 -13 4 3 19 0 35 -8 15 -8 44 -15 64
-15 19 0 35 -4 35 -9 0 -11 46 -29 84 -33 16 -2 31 -9 34 -16 2 -7 -2 -10 -12
-6 -20 8 -22 -22 -2 -41 7 -8 11 -25 9 -39 -5 -26 -18 -34 -25 -17 -1 4 -13
11 -24 15 -17 5 -29 -2 -53 -29 -33 -38 -33 -55 0 -55 10 0 19 -1 20 -2 0 -2
2 -23 5 -46 l5 -44 -30 7 c-26 6 -31 4 -31 -13 0 -26 -31 -38 -46 -18 -23 32
-75 16 -102 -32 -12 -21 -10 -22 23 -22 32 0 35 -2 35 -30 0 -19 -7 -33 -19
-40 -13 -6 -17 -17 -14 -30 4 -15 0 -20 -16 -20 -12 0 -21 -6 -21 -15 0 -8 -7
-15 -15 -15 -8 0 -15 -5 -15 -11 0 -7 -12 -24 -27 -38 -16 -15 -34 -39 -42
-54 -8 -15 -18 -27 -23 -27 -4 0 -8 -8 -8 -19 0 -10 -7 -24 -15 -31 -8 -7 -15
-18 -15 -26 0 -7 -6 -19 -12 -26 -20 -21 -38 -56 -38 -73 0 -8 -6 -15 -12 -16
-7 0 -4 -4 7 -9 11 -5 14 -9 8 -9 -28 -2 -11 -21 28 -31 29 -8 44 -8 54 0 9 7
14 7 17 0 4 -12 198 -21 198 -9 0 5 12 9 28 9 20 0 23 -3 12 -10 -11 -7 -9
-11 13 -19 57 -22 22 -43 -58 -35 -27 3 -60 6 -72 7 -11 1 -19 5 -16 10 2 4
-3 7 -11 7 -20 0 -30 -17 -14 -23 7 -3 2 -6 -11 -6 -17 -1 -22 3 -17 15 5 14
1 16 -34 10 -30 -5 -45 -2 -56 9 -9 8 -18 15 -22 15 -11 0 -5 -82 7 -114 7
-16 10 -35 7 -43 -3 -7 -1 -13 5 -13 6 0 9 -7 5 -15 -4 -10 1 -15 14 -15 13 0
20 -7 20 -20 0 -11 5 -20 11 -20 6 0 9 -7 5 -15 -3 -9 0 -15 10 -15 8 0 13 -4
9 -9 -3 -5 -1 -12 5 -16 5 -3 10 -15 10 -26 0 -10 7 -19 15 -19 8 0 17 -11 21
-25 4 -16 13 -25 25 -25 15 0 19 -7 19 -39 0 -22 5 -43 10 -46 15 -10 2 -25
-22 -25 -18 0 -20 -4 -15 -41 4 -29 1 -42 -9 -46 -10 -4 -11 -10 -3 -25 8 -15
8 -19 0 -14 -10 7 -45 -19 -47 -33 -2 -15 -28 -61 -35 -61 -4 0 -10 -7 -13
-16 -3 -8 -2 -12 4 -9 19 12 10 -11 -12 -33 -42 -38 -46 -49 -46 -112 l0 -62
-64 -64 -63 -65 -3 -144 c-3 -126 -6 -145 -20 -147 -19 -1 -53 -1 -64 1 -16 2
-48 82 -43 103 3 13 7 43 10 68 2 25 6 55 9 67 5 23 3 23 -87 23 l-93 0 2
-103 c0 -56 4 -121 9 -145 4 -29 3 -47 -5 -57 -16 -20 -70 -19 -98 1 -21 15
-30 53 -15 68 5 4 8 57 8 117 l0 109 -30 1 c-16 1 -33 1 -37 1 -3 -1 -11 5
-18 12 -8 11 -19 12 -43 5 -18 -5 -46 -9 -63 -9 -27 0 -31 -3 -27 -19 5 -22
42 -31 89 -24 24 4 35 0 47 -17 13 -19 13 -25 0 -51 -17 -33 -21 -34 -59 -15
-15 8 -31 13 -35 11 -4 -3 -9 5 -12 16 -3 12 -10 18 -16 14 -16 -9 -14 -42 4
-68 12 -18 13 -43 8 -121 -6 -92 -8 -98 -32 -110 -26 -13 -89 -12 -102 2 -12
11 -51 124 -56 160 -6 37 -5 36 -133 32 -47 -1 -90 -7 -97 -12 -8 -6 -19 -6
-32 2 -20 10 -101 10 -101 0 0 -3 21 -17 48 -30 26 -14 49 -26 52 -28 4 -3
-29 -26 -40 -27 -3 0 -15 -6 -27 -13 -17 -9 -23 -9 -27 1 -3 6 -4 3 -3 -8 1
-12 -3 -19 -10 -18 -7 2 -12 0 -11 -5 3 -10 -26 -72 -34 -72 -11 0 -98 -90
-99 -103 -1 -7 -2 -37 -3 -67 -1 -51 -3 -55 -29 -60 -17 -3 -33 -16 -42 -33
-14 -27 -13 -28 5 -22 11 4 30 3 41 0 17 -6 19 -9 8 -16 -8 -5 -27 -9 -42 -9
-32 0 -33 -4 -40 -83 l-6 -57 430 0 c236 0 429 4 429 8 0 5 -11 19 -25 32 -15
14 -25 33 -23 45 3 18 11 20 104 23 113 3 114 3 114 -75 l0 -33 62 0 62 0 -49
52 c-28 28 -60 60 -73 71 -16 13 -22 28 -20 46 l3 26 130 5 c72 3 131 4 133 3
8 -3 23 -150 18 -175 l-5 -28 364 0 365 0 0 629 c0 626 0 629 -21 634 -24 7
-33 -11 -21 -44 14 -39 -4 -80 -22 -50 -8 12 -25 135 -20 140 2 2 22 4 44 5
l40 1 0 291 c0 270 -1 291 -17 291 -10 0 -23 -3 -28 -8 -15 -11 -31 2 -32 27
-1 18 4 21 35 20 l37 -1 3 343 c3 391 1 404 -55 351 -38 -35 -43 -36 -43 -6 0
33 11 45 55 59 l40 13 3 453 3 454 -23 -16 c-12 -9 -32 -16 -43 -16 -12 0 -15
-3 -9 -8 6 -4 13 -17 16 -28 8 -31 7 -31 -287 -116 -38 -11 -83 -24 -99 -29
-37 -12 -93 -12 -100 0 -8 12 13 28 47 36 15 4 27 13 27 20 0 7 11 16 24 19
14 3 103 41 198 84 95 44 190 84 210 91 l38 13 0 514 0 514 -2340 0 -2340 0 0
-90z m1350 -195 c0 -16 -6 -25 -15 -25 -9 0 -15 9 -15 25 0 16 6 25 15 25 9 0
15 -9 15 -25z m1045 -27 c8 -25 13 -366 5 -378 -4 -6 -20 -10 -36 -8 l-29 3
-3 185 c-1 101 0 190 2 197 7 17 55 17 61 1z m1614 -87 c32 -26 36 -51 8 -51
-7 0 -21 -13 -31 -29 -19 -28 -20 -28 -48 -12 -45 25 -48 59 -7 92 19 16 36
28 39 28 3 0 20 -12 39 -28z m-2242 -52 c21 -53 18 -68 -13 -69 -11 0 -54 82
-54 104 0 15 18 26 35 22 6 -1 20 -27 32 -57z m1293 51 c13 -8 12 -13 -4 -42
-23 -41 -46 -68 -57 -68 -22 0 -20 52 2 85 25 37 35 41 59 25z m-1530 -70 c0
-5 -4 -10 -9 -10 -6 0 -13 5 -16 10 -3 6 1 10 9 10 9 0 16 -4 16 -10z m1872
-22 c14 -14 18 -23 10 -26 -7 -2 -18 -10 -25 -17 -11 -10 -18 -10 -38 5 -24
19 -24 19 -4 39 26 26 31 25 57 -1z m-1872 -16 c0 -13 -12 -22 -22 -16 -10 6
-1 24 13 24 5 0 9 -4 9 -8z m485 -2 c3 -5 1 -10 -4 -10 -6 0 -11 5 -11 10 0 6
2 10 4 10 3 0 8 -4 11 -10z m-650 -20 c3 -5 -1 -10 -9 -10 -9 0 -16 5 -16 10
0 6 4 10 9 10 6 0 13 -4 16 -10z m1455 -10 c0 -5 -4 -10 -10 -10 -5 0 -10 5
-10 10 0 6 5 10 10 10 6 0 10 -4 10 -10z m1780 -7 c0 -10 -112 -92 -175 -128
-27 -15 -52 -31 -55 -35 -3 -4 -15 -10 -27 -14 -27 -9 -29 -19 -8 -36 17 -14
21 -35 5 -25 -5 3 -10 -1 -10 -10 0 -9 -5 -13 -11 -9 -6 3 -14 2 -18 -4 -11
-17 -340 -172 -366 -172 -16 0 -24 7 -28 26 -5 29 -4 30 258 186 195 116 370
208 396 208 10 0 19 5 19 10 0 6 5 10 10 10 6 0 10 -3 10 -7z m-680 -63 c0
-24 -4 -30 -22 -30 -12 0 -33 -14 -48 -31 -26 -32 -26 -32 -58 -15 -18 9 -32
21 -32 26 0 6 -8 10 -17 10 -33 0 -46 15 -34 39 15 26 31 27 64 1 33 -27 51
-25 67 5 10 19 21 25 47 25 30 0 33 -3 33 -30z m-2636 -8 c13 -15 12 -20 -5
-40 l-19 -24 -24 29 c-42 48 4 83 48 35z m2216 5 c0 -7 -42 -55 -94 -106 -82
-81 -97 -93 -110 -81 -28 22 -18 46 42 99 31 29 68 63 81 77 26 26 81 34 81
11z m-685 -17 c3 -5 3 -15 -1 -21 -6 -11 -23 6 -24 24 0 10 18 9 25 -3z m335
-40 c0 -5 -4 -10 -10 -10 -5 0 -10 5 -10 10 0 6 5 10 10 10 6 0 10 -4 10 -10z
m-1742 -54 l56 -54 -23 -24 -24 -25 -36 37 c-72 73 -74 76 -59 99 7 12 17 21
21 21 5 0 34 -24 65 -54z m2688 33 c10 -17 -13 -36 -27 -22 -12 12 -4 33 11
33 5 0 12 -5 16 -11z m-1918 -31 c-7 -19 -38 -22 -38 -4 0 10 9 16 21 16 12 0
19 -5 17 -12z m934 -23 c0 -5 -5 -11 -11 -13 -6 -2 -11 4 -11 13 0 9 5 15 11
13 6 -2 11 -8 11 -13z m879 -28 c-1 -12 -15 -9 -19 4 -3 6 1 10 8 8 6 -3 11
-8 11 -12z m-181 -77 c0 -14 -15 -19 -29 -10 -17 10 -5 31 14 23 8 -3 15 -9
15 -13z m-2693 -92 c-3 -8 -6 -5 -6 6 -1 11 2 17 5 13 3 -3 4 -12 1 -19z
m-252 -78 c-5 -8 -11 -8 -17 -2 -6 6 -7 16 -3 22 5 8 11 8 17 2 6 -6 7 -16 3
-22z m2997 11 c-11 -7 -11 -11 2 -24 9 -8 16 -21 16 -27 0 -6 12 -15 28 -21
l27 -9 1 -113 c1 -61 -1 -96 -3 -77 -4 34 -5 35 -43 34 -40 -2 -40 -2 -40 36
l0 39 -80 7 -80 7 0 33 c0 33 -1 34 -42 36 -24 1 -58 1 -75 0 -29 -1 -33 2
-33 22 0 14 -3 32 -7 42 -6 16 3 16 133 10 86 -4 149 -3 164 3 31 12 50 14 32
2z m-2734 -38 c3 -31 2 -32 -40 -35 l-43 -3 3 -37 3 -37 -78 -3 -78 -3 -3 -37
c-3 -37 -4 -38 -44 -38 -40 0 -40 0 -34 33 3 17 2 46 -3 63 -13 45 2 64 49 64
38 0 40 2 40 30 l0 29 78 4 c145 7 147 6 150 -30z m-468 -103 c0 -5 -4 -10
-10 -10 -5 0 -10 5 -10 10 0 6 5 10 10 10 6 0 10 -4 10 -10z m-425 -66 c39
-14 110 -37 159 -52 151 -46 114 -71 -49 -33 -206 48 -265 70 -265 96 0 24 75
18 155 -11z m315 -14 c0 -5 -4 -10 -10 -10 -5 0 -10 5 -10 10 0 6 5 10 10 10
6 0 10 -4 10 -10z m570 -53 c0 -13 4 -27 10 -33 6 -6 -7 -8 -35 -6 -36 3 -45
8 -45 23 0 11 7 19 16 19 8 0 12 5 9 10 -4 6 5 10 19 10 20 0 26 -5 26 -23z
m500 -56 c0 -75 -1 -80 -22 -83 -21 -3 -23 -9 -26 -69 -3 -64 -2 -67 23 -73
21 -5 25 -12 25 -45 0 -25 5 -41 15 -45 10 -4 15 -20 15 -51 l0 -46 -37 3
c-41 3 -42 6 -59 125 -6 38 -9 42 -38 45 -31 3 -31 4 -40 77 -7 53 -6 79 2 92
7 10 12 33 12 51 0 44 52 95 98 97 l32 1 0 -79z m1597 42 c17 -13 21 -47 9
-80 -5 -18 -4 -23 8 -23 12 0 16 -11 16 -44 0 -24 -5 -46 -11 -48 -8 -3 -8
-14 -1 -40 12 -43 8 -48 -30 -48 -26 0 -28 -3 -28 -39 0 -22 -6 -44 -15 -51
-8 -7 -15 -25 -15 -41 0 -16 -4 -29 -8 -29 -5 0 -13 -21 -18 -47 -5 -25 -15
-48 -21 -51 -16 -5 -19 173 -3 183 6 3 10 24 10 45 0 30 5 40 20 45 17 6 20
15 20 75 0 59 -2 68 -20 73 -17 4 -20 13 -20 59 1 65 20 98 46 77 15 -12 18
-12 28 4 8 12 12 13 15 5 2 -7 10 -18 18 -25z m-2299 -25 c5 -20 5 -34 -1 -37
-13 -5 -27 19 -27 47 0 33 18 27 28 -10z m232 -59 c0 -10 -4 -19 -10 -19 -5 0
-10 12 -10 26 0 14 4 23 10 19 6 -3 10 -15 10 -26z m-675 2 c3 -5 1 -12 -5
-16 -5 -3 -10 1 -10 9 0 18 6 21 15 7z m3475 -1 c0 -5 -5 -10 -11 -10 -5 0 -7
5 -4 10 3 6 8 10 11 10 2 0 4 -4 4 -10z m-3278 -35 c0 -5 -5 -11 -11 -13 -6
-2 -11 4 -11 13 0 9 5 15 11 13 6 -2 11 -8 11 -13z m46 -82 c3 -19 -1 -23 -22
-23 -29 0 -39 11 -30 35 10 24 48 15 52 -12z m62 1 c0 -8 -5 -12 -10 -9 -6 4
-8 11 -5 16 9 14 15 11 15 -7z m107 -316 c-3 -7 -5 -2 -5 12 0 14 2 19 5 13 2
-7 2 -19 0 -25z m1024 2 l29 0 0 -72 c0 -108 -9 -148 -31 -148 -15 0 -19 7
-19 35 0 28 -4 35 -19 35 -26 0 -32 11 -35 63 -2 23 -6 52 -10 64 -7 22 13 35
42 27 8 -2 27 -4 43 -4z m-133 -22 c-2 -17 -11 -24 -30 -26 -23 -3 -28 -8 -28
-32 0 -36 -24 -51 -56 -36 -17 8 -24 19 -24 39 0 24 3 27 35 27 31 0 35 3 35
25 0 22 4 25 36 25 31 0 35 -3 32 -22z m-112 -130 c-3 -13 -6 -29 -6 -35 0 -7
-4 -13 -10 -13 -5 0 -10 16 -10 35 0 26 4 35 16 35 12 0 15 -6 10 -22z m1562
-2 c2 -3 -1 -25 -7 -50 -6 -25 -11 -63 -11 -85 0 -29 -4 -41 -14 -41 -8 0 -17
6 -19 13 -3 6 -6 -5 -6 -25 -1 -30 -5 -38 -20 -38 -24 0 -35 52 -26 124 6 44
4 54 -9 59 -14 6 -22 37 -12 48 6 6 117 1 124 -5z m-430 -58 c-5 -34 -38 -37
-38 -4 0 20 5 26 21 26 15 0 20 -5 17 -22z m634 -26 c8 -28 11 -32 23 -22 13
11 15 4 15 -42 0 -51 -2 -55 -22 -54 -14 1 -24 9 -26 20 -3 11 -26 41 -53 67
-27 26 -49 52 -49 59 0 7 18 10 52 8 49 -3 52 -5 60 -36z m-1602 -10 c0 -21
-4 -42 -9 -47 -6 -6 -15 -48 -20 -95 -9 -71 -9 -87 3 -95 8 -6 16 -24 18 -40
3 -27 7 -30 46 -33 37 -3 42 -6 42 -28 0 -17 5 -24 20 -24 13 0 20 -7 20 -19
0 -25 22 -42 51 -39 20 3 25 -2 27 -24 3 -22 -1 -28 -17 -28 -11 0 -22 4 -25
9 -3 5 -15 7 -26 4 -33 -9 -71 6 -68 25 5 32 -12 42 -73 42 l-59 0 0 40 c0 38
-2 40 -30 40 -25 0 -30 4 -30 25 0 14 0 28 0 33 -1 4 9 8 20 10 26 4 43 46 37
93 -3 21 1 43 9 54 8 10 14 31 14 47 0 15 4 28 9 28 5 0 11 14 15 30 8 43 26
37 26 -8z m-305 -3 c0 -8 -10 -15 -22 -17 -22 -3 -32 16 -17 30 10 11 39 1 39
-13z m-1271 -18 c3 -4 3 -11 0 -14 -8 -7 -44 4 -44 14 0 12 37 12 44 0z m104
-14 c4 -19 -6 -21 -27 -8 -16 10 -5 34 12 28 7 -2 13 -11 15 -20z m1250 -15
c27 -2 32 -6 32 -26 0 -18 -6 -26 -22 -28 -17 -2 -23 -11 -25 -35 -2 -18 2
-33 7 -33 6 0 10 -18 10 -41 0 -33 -3 -40 -17 -37 -10 2 -19 13 -21 26 -3 16
-10 22 -28 22 -18 0 -24 5 -24 21 0 11 -4 18 -9 15 -13 -8 -21 19 -21 69 0 55
-2 54 118 47z m2931 -76 c-8 -16 -24 -26 -55 -33 -42 -10 -44 -9 -44 13 0 21
5 24 34 24 19 0 38 5 41 10 3 6 13 10 20 10 12 0 12 -5 4 -24z m-1259 -97 c0
-12 8 -23 18 -26 23 -6 19 -44 -8 -68 -17 -15 -18 -13 -24 30 -4 25 -11 45
-15 45 -11 0 -31 70 -31 106 0 28 2 27 30 -18 17 -27 30 -57 30 -69z m-1604
66 c-1 -26 -5 -35 -18 -35 -34 0 -20 54 18 70 0 0 0 -16 0 -35z m1264 10 c0
-23 -4 -25 -45 -25 -41 0 -45 2 -45 25 0 23 4 25 45 25 41 0 45 -2 45 -25z
m-870 -61 c0 -33 -2 -35 -27 -32 -23 2 -29 8 -31 36 -3 30 -1 32 27 32 29 0
31 -3 31 -36z m800 26 c18 -6 20 -8 7 -9 -11 -1 -21 -10 -24 -21 -4 -15 -14
-20 -39 -20 -29 0 -34 3 -34 24 0 34 34 44 90 26z m-2473 -52 c-3 -8 -6 -5 -6
6 -1 11 2 17 5 13 3 -3 4 -12 1 -19z m-33 -23 c-4 -8 -12 -15 -20 -15 -8 0
-11 6 -8 15 4 8 12 15 20 15 8 0 11 -6 8 -15z m904 -30 l-5 -44 66 -3 66 -3 3
-36 c4 -49 -13 -61 -85 -57 -58 3 -58 3 -63 38 -5 34 -6 35 -46 32 -46 -4 -54
7 -54 81 l0 37 61 0 62 0 -5 -45z m1784 15 c5 -36 2 -40 -33 -40 -23 0 -28 -5
-33 -34 -6 -32 -10 -35 -51 -42 -25 -3 -45 -10 -45 -15 0 -5 -6 -8 -12 -6 -7
1 -12 -5 -10 -14 3 -22 -16 -35 -60 -42 -38 -6 -38 -6 -38 29 0 34 1 35 28 29
27 -6 28 -5 24 26 -4 26 -2 31 11 26 12 -5 17 2 19 30 2 20 9 39 17 41 8 3 11
0 7 -6 -8 -13 31 -25 65 -20 19 2 25 10 27 36 3 30 6 32 41 32 35 0 39 -3 43
-30z m502 -16 c10 -4 16 -18 16 -35 0 -24 -4 -29 -25 -29 -22 0 -25 4 -25 35
0 35 5 40 34 29z m-3217 -146 c-2 -29 -3 -8 -3 47 0 55 1 79 3 53 2 -26 2 -71
0 -100z m59 90 c-3 -29 -7 -87 -7 -128 l-2 -75 -7 60 c-9 73 -1 195 13 195 6
0 7 -20 3 -52z m1784 -3 c0 -19 -4 -35 -10 -35 -5 0 -10 9 -10 20 0 18 -7 20
-62 20 -35 0 -80 3 -100 6 -69 12 -28 24 78 24 l104 0 0 -35z m590 20 c-3 -5
-34 -10 -70 -10 -85 0 -121 5 -114 16 8 13 190 7 184 -6z m895 -50 c0 -32 -18
-41 -61 -31 -17 5 -24 13 -24 30 0 28 13 36 55 33 26 -2 30 -6 30 -32z m-171
3 c7 -30 -5 -41 -38 -32 -19 4 -26 13 -26 30 0 20 5 24 29 24 21 0 30 -6 35
-22z m-1764 -48 c0 -30 -1 -30 -55 -30 -54 0 -55 0 -55 30 0 30 1 30 55 30 54
0 55 0 55 -30z m1398 3 c-3 -27 -6 -28 -60 -31 l-58 -3 0 31 0 30 61 0 c60 0
60 0 57 -27z m437 -13 c0 -18 -6 -26 -23 -28 -13 -2 -25 3 -28 12 -10 26 4 48
28 44 17 -2 23 -10 23 -28z m-2266 -47 c21 -22 34 -80 21 -88 -6 -3 -10 -15
-10 -27 0 -16 -5 -19 -22 -14 -13 3 -36 6 -51 6 -16 0 -26 4 -23 9 3 5 -1 11
-9 15 -16 6 -21 78 -9 111 9 23 79 14 103 -12z m-165 11 c17 -6 23 -54 7 -54
-5 0 -15 -16 -21 -35 -11 -33 -14 -35 -56 -35 -28 0 -44 -4 -44 -12 -1 -9 -3
-8 -9 2 -4 8 -6 34 -3 58 3 32 8 42 22 42 10 0 20 9 23 20 5 20 46 27 81 14z
m-568 -27 c4 -4 -5 -18 -19 -31 l-27 -25 0 34 c0 29 3 34 20 32 11 -2 23 -6
26 -10z m3274 -141 c0 -36 -4 -46 -20 -51 -11 -3 -20 -10 -20 -15 0 -16 -61
-42 -78 -34 -10 4 -21 6 -26 5 -16 -4 -26 23 -26 70 0 40 3 46 28 56 15 6 53
11 85 12 l57 1 0 -44z m-2876 28 c18 -7 23 -88 7 -98 -18 -11 -36 5 -48 41
-17 55 -3 74 41 57z m2633 -24 c3 -11 14 -20 25 -20 17 0 19 -5 12 -47 -3 -27
-8 -51 -11 -55 -2 -5 -26 -8 -54 -8 -37 0 -49 4 -49 15 0 10 -10 15 -30 15
-33 0 -35 4 -44 67 l-6 42 52 4 c29 2 64 4 76 5 16 1 26 -4 29 -18z m-3157
-14 c0 -2 -7 -6 -15 -10 -8 -3 -15 -1 -15 4 0 6 7 10 15 10 8 0 15 -2 15 -4z
m25 -26 c4 -6 -6 -10 -22 -9 -25 0 -26 1 -8 9 11 5 21 9 22 9 1 1 5 -3 8 -9z
m4096 -10 c20 0 7 -28 -15 -32 -20 -4 -23 -1 -22 19 1 15 6 21 14 18 8 -3 18
-5 23 -5z m-4211 -20 c0 -5 -2 -10 -4 -10 -3 0 -8 5 -11 10 -3 6 -1 10 4 10 6
0 11 -4 11 -10z m1010 -24 c0 -29 -26 -58 -49 -54 -11 2 -17 16 -19 41 -3 36
-3 37 32 37 31 0 36 -3 36 -24z m1610 -20 c0 -26 -20 -39 -45 -30 -15 6 -20
35 -8 47 3 4 17 7 30 7 18 0 23 -6 23 -24z m1493 17 c-7 -2 -19 -2 -25 0 -7 3
-2 5 12 5 14 0 19 -2 13 -5z m-1438 -23 c0 -22 -29 -18 -33 3 -3 14 1 18 15
15 10 -2 18 -10 18 -18z m-1955 -10 c0 -11 -7 -23 -15 -26 -11 -5 -15 -22 -15
-66 l0 -59 -47 3 -48 3 -3 58 -3 57 32 0 c28 0 31 3 27 25 -5 23 -2 25 33 25
33 0 39 -3 39 -20z m2850 5 c0 -9 7 -18 15 -21 10 -4 15 -21 15 -53 l0 -47
-52 7 c-29 4 -61 8 -70 8 -18 1 -48 58 -48 91 0 24 13 28 83 29 45 1 57 -2 57
-14z m-574 -32 c-11 -11 -19 6 -11 24 8 17 8 17 12 0 3 -10 2 -21 -1 -24z
m-2801 3 c15 -15 10 -26 -12 -26 -7 0 -13 9 -13 20 0 24 6 25 25 6z m733 -36
c-2 -10 -17 -16 -46 -18 -41 -3 -42 -2 -42 27 0 26 4 30 33 33 34 4 60 -16 55
-42z m131 44 c37 -8 43 -40 9 -53 -36 -13 -58 -2 -58 30 0 31 2 32 49 23z
m439 -45 c4 -35 -20 -44 -50 -19 -23 20 -23 20 -3 35 27 22 49 15 53 -16z
m1769 9 c17 -18 8 -88 -12 -88 -13 0 -35 -41 -35 -65 0 -16 -27 -19 -79 -9
-33 7 -35 11 -45 91 -6 39 -5 42 23 48 18 4 31 14 34 27 5 18 11 20 52 15 26
-2 54 -11 62 -19z m-1857 -18 c0 -29 -2 -30 -45 -30 -43 0 -45 1 -45 30 0 29
2 30 45 30 43 0 45 -1 45 -30z m-1209 -5 c-1 -15 -24 -12 -29 3 -3 9 2 13 12
10 10 -1 17 -7 17 -13z m2348 1 c9 -11 8 -15 -5 -20 -20 -8 -34 1 -34 20 0 18
24 18 39 0z m911 -33 c28 -26 40 -45 40 -65 l0 -28 75 0 c65 0 75 -2 75 -17 0
-10 3 -35 6 -55 l7 -38 -86 0 c-74 0 -89 3 -105 21 -14 14 -33 20 -61 21 -31
0 -41 4 -41 17 0 9 -11 33 -25 53 -25 37 -34 98 -14 98 6 0 17 7 25 15 25 25
61 17 104 -22z m-2460 -12 c0 -24 -5 -29 -30 -33 -36 -5 -43 2 -34 37 5 19 12
25 35 25 25 0 29 -4 29 -29z m1911 -1 c10 0 19 -4 19 -10 0 -5 -9 -10 -20 -10
-11 0 -20 2 -20 4 0 2 -2 10 -3 18 -2 7 -2 10 0 6 3 -5 13 -8 24 -8z m-1191
-5 c0 -8 -4 -15 -10 -15 -5 0 -10 7 -10 15 0 8 5 15 10 15 6 0 10 -7 10 -15z
m-1680 -19 c0 -3 -4 -8 -10 -11 -5 -3 -10 -1 -10 4 0 6 5 11 10 11 6 0 10 -2
10 -4z m40 -33 c0 -24 -3 -33 -9 -25 -7 12 -4 62 5 62 2 0 4 -17 4 -37z m-53
-40 c-3 -10 -5 -2 -5 17 0 19 2 27 5 18 2 -10 2 -26 0 -35z m2060 41 c-3 -3
-12 -4 -19 -1 -8 3 -5 6 6 6 11 1 17 -2 13 -5z m-1377 -44 c0 -27 3 -30 31
-30 l31 0 -7 -52 c-4 -29 -18 -90 -31 -136 -13 -45 -24 -88 -24 -96 0 -10 -29
-15 -119 -21 l-119 -7 -19 -76 -19 -76 -62 0 c-34 -1 -62 3 -62 8 0 5 11 59
24 120 14 61 36 170 51 241 15 72 30 133 33 137 4 4 66 9 137 11 72 1 136 4
143 5 7 1 12 -10 12 -28z m408 0 c-4 -28 -3 -30 30 -30 l34 0 -7 -92 c-4 -51
-11 -103 -16 -116 -5 -12 -14 -74 -21 -137 l-12 -115 -58 0 c-32 0 -61 0 -65
0 -4 0 -6 18 -4 40 l3 40 -69 0 c-45 0 -76 -5 -89 -15 -11 -8 -14 -15 -6 -15
6 0 12 -11 12 -25 0 -24 -3 -25 -61 -25 l-61 0 7 33 c4 17 16 57 27 87 20 54
26 82 51 250 13 83 14 85 40 83 23 -2 27 2 27 27 0 35 7 37 139 39 l103 1 -4
-30z m485 -32 l32 -3 -4 -76 c-1 -42 -6 -92 -10 -110 -6 -31 -10 -34 -49 -37
-36 -3 -43 -7 -48 -29 -4 -14 -2 -34 5 -45 6 -10 9 -29 5 -43 -6 -24 -4 -25
34 -25 l40 0 -1 -44 -2 -45 -73 -3 -72 -3 6 46 6 45 -34 -4 c-32 -3 -36 -1
-53 37 -10 23 -21 41 -25 41 -3 0 -12 -36 -19 -80 l-13 -80 -37 -1 c-20 0 -49
-2 -65 -4 l-28 -4 6 62 c4 34 11 94 16 132 5 39 14 120 20 180 6 61 14 118 16
127 5 15 23 18 157 20 l152 3 3 -27 c3 -22 9 -27 35 -30z m407 31 c0 -30 2
-31 30 -25 l30 6 0 -235 0 -235 -65 0 -65 0 0 45 c0 43 -1 44 -41 55 -57 16
-67 9 -71 -47 l-3 -48 -65 -6 c-36 -3 -67 -4 -70 -3 -7 3 6 399 15 463 l7 50
81 3 c45 2 112 4 150 6 l67 2 0 -31z m1064 25 c9 -3 16 -12 16 -20 0 -21 38
-36 82 -31 35 4 41 2 49 -20 5 -14 7 -29 3 -34 -3 -5 -47 -9 -99 -9 -123 0
-125 -1 -125 -61 l0 -49 90 0 91 0 5 -30 c6 -28 9 -30 44 -24 l37 6 6 -68 c4
-38 9 -92 13 -120 l6 -51 -108 -7 c-161 -10 -260 -6 -281 10 -16 12 0 13 114
14 72 0 134 4 137 9 6 10 -4 105 -13 119 -4 6 -56 12 -124 13 -65 1 -120 6
-124 11 -5 10 -31 164 -40 246 -5 41 -4 42 25 42 26 0 29 3 25 24 -5 22 -1 25
33 29 68 7 122 7 138 1z m-614 -24 c0 -15 7 -20 29 -20 26 0 29 -3 35 -47 3
-27 10 -115 16 -198 5 -82 11 -166 12 -185 3 -34 2 -35 -39 -38 -24 -2 -43 -7
-43 -12 0 -5 -15 -7 -32 -5 -26 4 -29 3 -13 -4 17 -8 18 -10 3 -10 -12 -1 -17
-8 -15 -23 2 -27 29 -40 63 -32 18 5 24 2 24 -10 0 -14 -20 -16 -170 -16
l-170 0 2 48 c1 43 2 44 5 10 l4 -38 100 0 c63 0 99 4 99 11 0 5 -4 7 -10 4
-14 -8 -13 38 1 52 8 8 -15 13 -84 18 -52 4 -100 4 -106 1 -17 -11 -20 25 -24
277 l-4 237 159 0 c151 0 158 -1 158 -20z m284 8 c2 -7 9 -78 16 -158 6 -80
17 -189 24 -242 l12 -96 -60 -4 c-74 -5 -86 6 -86 76 -1 48 -21 153 -34 174
-12 20 -25 226 -15 244 8 14 22 18 75 18 43 0 66 -4 68 -12z m576 -48 c0 -22
41 -40 91 -40 22 0 38 -4 35 -9 -3 -5 0 -32 7 -60 l12 -51 92 0 93 0 0 -27 c0
-16 3 -45 6 -65 l7 -38 -87 0 c-96 0 -92 5 -74 -82 l12 -58 109 0 c82 0 108
-3 104 -12 -3 -10 -45 -12 -172 -11 -92 1 -170 5 -172 7 -7 6 -50 225 -68 341
-8 50 -17 106 -20 125 -6 33 -6 34 9 16 9 -11 16 -27 16 -36z m829 -214 c10
-12 8 -13 -9 -9 -25 7 -37 23 -17 23 8 0 20 -6 26 -14z m51 -16 c0 -5 -7 -7
-15 -4 -8 4 -15 8 -15 10 0 2 7 4 15 4 8 0 15 -4 15 -10z m95 -285 c0 -10 -5
-20 -11 -22 -13 -4 -27 24 -18 38 9 15 29 4 29 -16z m-3875 -23 c0 -15 -10
-18 -65 -20 -47 -2 -65 1 -65 10 0 10 16 12 60 10 39 -3 60 0 60 7 0 6 2 11 5
11 3 0 5 -8 5 -18z m2692 -2 c92 0 148 -4 148 -10 0 -6 -60 -10 -160 -10 -158
0 -160 0 -160 22 0 17 3 19 12 10 8 -8 58 -12 160 -12z m-2286 -6 c-3 -9 -6
-17 -6 -18 0 -1 -16 0 -35 2 -44 5 -45 19 -2 25 17 2 36 5 41 5 4 1 5 -5 2
-14z m484 -5 c0 -5 -27 -9 -60 -9 -41 0 -60 4 -60 13 0 8 17 11 60 9 33 -2 60
-8 60 -13z m239 8 c27 4 41 2 41 -6 0 -13 -136 -16 -144 -2 -9 15 5 19 34 11
16 -5 47 -6 69 -3z m261 -8 c0 -10 -89 -12 -114 -3 -33 13 -14 19 49 16 36 -2
65 -8 65 -13z m1000 0 c0 -11 -127 -12 -134 0 -3 4 -4 10 -2 12 8 8 136 -3
136 -12z m930 4 c0 -10 -41 -13 -170 -13 -129 0 -170 3 -170 13 0 9 41 12 170
12 129 0 170 -3 170 -12z m-3020 3 c0 -3 -4 -8 -10 -11 -5 -3 -10 -1 -10 4 0
6 5 11 10 11 6 0 10 -2 10 -4z m394 -7 c-6 -11 -134 -10 -134 1 0 3 32 6 70 7
42 1 68 -3 64 -8z m956 1 c0 -6 -28 -10 -65 -10 -37 0 -65 4 -65 10 0 6 28 10
65 10 37 0 65 -4 65 -10z m2225 -30 c3 -5 2 -10 -4 -10 -5 0 -13 5 -16 10 -3
6 -2 10 4 10 5 0 13 -4 16 -10z m-11 -96 c19 -18 30 -59 21 -73 -3 -6 -26 -11
-50 -11 -24 0 -46 -4 -49 -9 -8 -12 14 -28 43 -33 14 -1 26 -9 29 -17 6 -20
-28 -12 -187 43 -74 25 -142 46 -152 46 -10 0 -25 -10 -33 -22 -16 -23 -17
-22 -20 10 -1 9 -7 27 -14 40 -7 12 -10 27 -7 32 4 6 86 10 205 10 167 0 201
-2 214 -16z m-4263 -29 c-1 -11 -17 -34 -35 -51 -33 -32 -143 -90 -153 -81 -3
4 13 28 36 55 45 55 51 72 22 72 -11 0 -22 4 -26 10 -3 5 21 11 57 13 98 6
103 5 99 -18z m1152 -17 l15 -23 26 24 26 24 0 -56 c0 -31 -4 -57 -10 -57 -5
0 -10 11 -10 24 0 19 -5 23 -30 22 -21 -1 -31 -7 -35 -23 -10 -40 -25 -25 -25
25 0 67 15 80 43 40z m115 -30 c-2 -30 -8 -53 -15 -56 -14 -4 -17 26 -7 77 10
50 25 36 22 -21z m56 25 l23 -26 7 26 c3 15 11 27 16 27 13 0 13 -80 0 -100
-8 -13 -12 -12 -25 8 -20 27 -31 28 -38 2 -9 -34 -30 -24 -23 11 3 17 6 42 6
55 0 31 6 30 34 -3z m146 12 c0 -9 -10 -16 -27 -16 -24 -2 -25 -2 -5 -6 12 -2
22 -9 22 -14 0 -5 -10 -14 -22 -19 l-23 -9 23 0 c35 -1 28 -31 -7 -31 -38 0
-44 10 -35 65 6 43 8 45 40 45 24 0 34 -5 34 -15z m90 1 c0 -9 -12 -16 -27
-18 -40 -4 -39 -42 0 -46 32 -4 32 -25 0 -30 -45 -7 -69 54 -36 90 19 22 63
24 63 4z m90 -1 c10 -12 10 -21 2 -40 -8 -17 -8 -26 -1 -31 7 -4 7 -10 -1 -18
-8 -8 -14 -7 -21 7 -12 21 -29 22 -29 2 0 -8 -4 -15 -10 -15 -5 0 -10 25 -10
55 0 54 1 55 29 55 16 0 34 -7 41 -15z m88 3 c14 -14 16 -98 2 -98 -5 0 -10 7
-10 15 0 8 -7 15 -15 15 -9 0 -18 -7 -21 -15 -9 -22 -24 -18 -24 6 0 29 30 89
44 89 7 0 17 -5 24 -12z m102 -3 c0 -8 -9 -15 -20 -15 -11 0 -20 -4 -20 -10 0
-5 9 -10 20 -10 11 0 20 -4 20 -10 0 -5 -11 -10 -25 -10 -18 0 -25 -5 -25 -20
0 -11 -4 -20 -10 -20 -11 0 -14 93 -3 103 13 14 63 7 63 -8z m90 0 c0 -8 -6
-15 -14 -15 -11 0 -13 -10 -9 -40 5 -33 3 -40 -11 -40 -12 0 -16 10 -16 40 0
29 -4 40 -15 40 -8 0 -15 7 -15 15 0 11 11 15 40 15 29 0 40 -4 40 -15z m130
5 c0 -6 -7 -13 -16 -17 -14 -5 -13 -8 6 -23 19 -14 21 -20 11 -39 -9 -16 -20
-21 -38 -19 -37 4 -42 28 -6 28 l28 1 -27 15 c-30 16 -35 33 -16 52 15 15 58
16 58 2z m55 -12 l16 -23 19 25 c10 14 21 23 23 20 2 -3 7 -29 11 -57 6 -44 4
-53 -9 -53 -9 0 -15 9 -15 23 0 18 -6 22 -30 23 -25 1 -30 -3 -30 -22 0 -13
-4 -24 -10 -24 -5 0 -10 25 -10 55 0 59 10 68 35 33z m146 12 c30 -16 24 -50
-11 -63 -19 -7 -28 -17 -25 -25 3 -8 0 -12 -7 -10 -8 3 -14 26 -16 56 -3 47
-1 52 18 52 12 0 30 -5 41 -10z m140 -5 c0 -5 -10 -13 -23 -16 -23 -6 -22 -6
5 -14 36 -10 38 -52 3 -61 -26 -6 -46 1 -46 17 0 5 10 9 23 10 l22 0 -22 16
c-23 15 -30 43 -16 57 10 10 54 3 54 -9z m99 0 c0 -9 -10 -16 -27 -16 l-28 -2
28 -4 c23 -4 27 -9 27 -39 0 -32 -2 -34 -35 -34 l-35 0 0 48 c0 57 4 62 42 62
18 0 28 -5 28 -15z m91 -1 c14 -13 16 -21 8 -35 -6 -13 -6 -25 1 -39 9 -16 8
-20 -5 -20 -9 0 -18 7 -21 15 -4 8 -10 15 -15 15 -5 0 -9 -7 -9 -15 0 -8 -7
-15 -15 -15 -12 0 -15 13 -15 55 0 53 1 55 27 55 14 0 35 -7 44 -16z m51 -9
c14 -32 21 -31 44 2 10 17 19 23 22 15 4 -14 -29 -102 -40 -102 -8 0 -43 60
-53 89 -9 30 13 27 27 -4z m151 10 c-1 -5 -12 -13 -25 -17 l-23 -6 23 -1 c26
-1 30 -27 5 -34 -14 -4 -12 -5 5 -6 38 -2 27 -31 -13 -31 l-35 0 0 56 0 55 33
-3 c17 -2 31 -7 30 -13z m88 -2 c14 -16 21 -93 8 -93 -3 0 -12 7 -20 16 -11
14 -13 14 -21 0 -5 -9 -13 -16 -17 -16 -9 0 -21 89 -14 103 7 13 50 7 64 -10z
m-2031 -96 c0 -8 12 -19 27 -26 l27 -12 -27 -25 c-27 -24 -57 -32 -57 -14 0 6
-9 10 -20 10 -27 0 -26 27 3 55 25 26 47 31 47 12z m2665 -37 c0 -16 -6 -26
-19 -28 -25 -5 -39 12 -31 38 10 31 50 24 50 -10z m-2968 4 c4 -10 -1 -22 -12
-30 -23 -17 -35 -9 -35 22 0 17 5 24 20 24 11 0 23 -7 27 -16z m-607 -8 c0
-25 -12 -46 -25 -46 -14 0 -27 38 -19 52 9 14 44 9 44 -6z m-145 -6 c-3 -5
-11 -10 -16 -10 -6 0 -7 5 -4 10 3 6 11 10 16 10 6 0 7 -4 4 -10z m465 -138
c0 -15 -7 -37 -15 -49 -8 -12 -12 -29 -9 -37 7 -19 -3 -66 -15 -66 -4 0 -14
11 -21 25 l-13 24 -37 -29 c-67 -53 -76 -28 -20 56 l27 41 -43 11 c-24 7 -44
16 -44 21 0 8 98 27 158 30 29 1 32 -2 32 -27z m620 -142 c0 -5 -7 -10 -15
-10 -8 0 -15 -4 -15 -10 0 -5 -7 -10 -15 -10 -8 0 -15 7 -15 15 0 8 -7 15 -15
15 -22 0 -18 19 8 40 22 18 22 18 45 -5 12 -13 22 -29 22 -35z m1681 23 c0
-10 2 -26 4 -37 2 -11 0 -15 -5 -10 -13 13 -20 64 -9 64 5 0 9 -8 10 -17z
m226 -50 c27 -31 27 -32 4 -60 -24 -28 -35 -29 -61 -3 -25 25 -25 35 -2 65 22
31 31 31 59 -2z m-217 -88 c0 -27 -16 -32 -42 -11 -28 21 -26 24 35 35 4 0 7
-10 7 -24z m1317 -38 c1 -1 3 -16 5 -32 3 -28 1 -30 -30 -27 -50 5 -109 -27
-116 -63 -5 -20 -2 -32 9 -38 8 -4 15 -12 15 -17 0 -16 -26 -12 -40 6 -8 8
-27 21 -44 28 -17 7 -44 24 -60 37 -123 103 -104 118 144 111 63 -2 116 -5
117 -5z m-3917 -125 c0 -10 -13 -26 -30 -35 -36 -22 -38 -15 -7 23 26 34 37
37 37 12z"/>
<path d="M875 1537 c-12 -38 -25 -95 -25 -114 0 -20 5 -23 44 -23 25 0 48 5
52 12 8 12 35 121 31 124 -1 1 -24 4 -50 7 -34 5 -49 3 -52 -6z"/>
<path d="M1306 1519 c-3 -17 -6 -46 -6 -65 0 -18 -4 -35 -9 -38 -5 -3 -7 -15
-4 -26 3 -11 0 -27 -7 -35 -18 -22 -5 -31 38 -27 l40 4 16 86 c21 116 21 122
-8 122 -13 0 -31 2 -39 6 -10 3 -16 -4 -21 -27z"/>
<path d="M1725 1494 c-4 -31 -5 -58 -2 -60 2 -3 26 -1 53 3 48 8 49 9 56 53 4
24 7 45 5 45 -1 1 -25 5 -53 8 l-52 6 -7 -55z"/>
<path d="M2187 1478 c-3 -40 -4 -74 -3 -75 0 0 22 1 49 4 l47 6 0 68 0 69 -44
0 -43 0 -6 -72z"/>
<path d="M2678 1543 l-48 -4 0 -102 c0 -56 3 -139 7 -184 l6 -83 64 0 c49 0
65 4 70 16 3 9 0 66 -7 127 -7 62 -14 140 -17 175 -3 38 -10 61 -17 60 -6 -1
-32 -3 -58 -5z"/>
<path d="M1970 860 c0 -5 7 -10 15 -10 8 0 15 5 15 10 0 6 -7 10 -15 10 -8 0
-15 -4 -15 -10z"/>
<path d="M2076 861 c-4 -7 -5 -15 -2 -18 9 -9 19 4 14 18 -4 11 -6 11 -12 0z"/>
<path d="M2590 860 c0 -5 7 -10 15 -10 8 0 15 5 15 10 0 6 -7 10 -15 10 -8 0
-15 -4 -15 -10z"/>
<path d="M2838 823 c7 -3 16 -2 19 1 4 3 -2 6 -13 5 -11 0 -14 -3 -6 -6z"/>
<path d="M2918 858 c9 -9 15 -9 24 0 9 9 7 12 -12 12 -19 0 -21 -3 -12 -12z"/>
<path d="M3210 860 c0 -5 7 -10 15 -10 8 0 15 5 15 10 0 6 -7 10 -15 10 -8 0
-15 -4 -15 -10z"/>
<path d="M2153 3803 c-44 -3 -53 -7 -53 -23 0 -21 -40 -37 -59 -25 -7 4 -11
-5 -11 -23 0 -31 -17 -42 -67 -42 -17 0 -22 -7 -25 -32 -3 -33 -3 -33 -75 -41
l-73 -9 0 -34 c0 -27 4 -34 19 -34 44 0 50 -9 57 -91 l7 -80 31 3 c29 3 31 6
34 46 3 42 3 42 43 42 35 0 39 2 39 26 0 22 -3 24 -22 18 -13 -3 -29 -11 -35
-16 -10 -8 -13 -5 -13 11 0 16 7 21 28 22 15 1 30 1 35 0 4 0 7 4 7 9 0 6 16
10 35 10 33 0 35 2 35 34 l0 34 213 6 c116 4 235 3 262 -1 46 -8 50 -11 53
-38 4 -35 16 -45 55 -45 24 0 27 -4 27 -34 0 -33 2 -35 38 -38 36 -3 37 -4 40
-46 3 -43 3 -43 40 -40 34 3 37 5 40 38 3 44 20 78 42 85 24 8 41 51 34 83 -9
34 -20 42 -61 42 -31 0 -33 2 -33 34 l0 34 -75 7 c-75 7 -75 7 -75 36 0 26 -3
29 -31 29 -22 0 -32 5 -36 20 -4 16 -14 20 -52 20 -25 0 -118 1 -206 3 -88 2
-184 2 -212 0z m360 -120 c-7 -2 -19 -2 -25 0 -7 3 -2 5 12 5 14 0 19 -2 13
-5z"/>
<path d="M1583 3743 c-29 -4 -33 -8 -33 -33 0 -26 4 -29 50 -39 28 -6 82 -11
120 -11 l70 0 0 39 0 38 -61 7 c-63 6 -88 6 -146 -1z"/>
<path d="M1470 3737 c10 -9 70 -16 70 -9 0 4 -17 9 -37 10 -21 2 -35 1 -33 -1z"/>
<path d="M3248 3733 c7 -3 16 -2 19 1 4 3 -2 6 -13 5 -11 0 -14 -3 -6 -6z"/>
<path d="M3135 3630 c-30 -8 -30 -8 8 -9 23 -1 36 3 32 9 -3 6 -7 9 -8 9 -1
-1 -15 -5 -32 -9z"/>
<path d="M873 3173 c10 -9 56 -10 51 -1 -3 4 -17 8 -31 8 -15 0 -23 -3 -20 -7z"/>
<path d="M1785 3160 c-11 -18 15 -40 46 -40 33 0 36 -6 14 -30 -14 -15 -13
-22 6 -64 11 -27 25 -44 29 -40 14 15 24 144 11 144 -6 0 -11 6 -11 14 0 21
-83 35 -95 16z"/>
<path d="M4121 3064 c0 -11 3 -14 6 -6 3 7 2 16 -1 19 -3 4 -6 -2 -5 -13z"/>
<path d="M1197 3044 c-12 -12 3 -22 23 -17 11 3 17 9 14 14 -6 10 -28 12 -37
3z"/>
<path d="M2731 2873 c-1 -56 1 -63 18 -63 19 0 19 2 5 53 -8 28 -17 57 -19 62
-2 6 -4 -18 -4 -52z"/>
<path d="M2940 2786 c0 -3 4 -16 10 -30 6 -18 14 -24 25 -19 11 4 13 9 6 16
-5 5 -7 16 -4 23 3 9 -2 14 -16 14 -12 0 -21 -2 -21 -4z"/>
<path d="M2276 2459 c-3 -13 -7 -50 -10 -82 -4 -55 -3 -59 20 -68 14 -5 27 -9
30 -9 2 0 4 33 4 73 0 61 -4 77 -20 92 -18 17 -19 16 -24 -6z"/>
<path d="M2398 2420 c-9 -30 -10 -132 -2 -154 7 -17 49 -22 58 -7 4 5 9 30 12
55 l7 46 -31 0 c-29 0 -31 2 -34 43 -3 36 -4 38 -10 17z"/>
<path d="M3850 2299 c0 -5 5 -7 10 -4 6 3 10 8 10 11 0 2 -4 4 -10 4 -5 0 -10
-5 -10 -11z"/>
<path d="M446 2272 c-2 -4 -1 -14 5 -22 7 -12 9 -10 9 8 0 23 -5 28 -14 14z"/>
<path d="M4150 1915 c0 -8 5 -15 10 -15 6 0 10 7 10 15 0 8 -4 15 -10 15 -5 0
-10 -7 -10 -15z"/>
<path d="M3080 1809 c0 -5 5 -7 10 -4 6 3 10 8 10 11 0 2 -4 4 -10 4 -5 0 -10
-5 -10 -11z"/>
<path d="M1311 904 c0 -11 3 -14 6 -6 3 7 2 16 -1 19 -3 4 -6 -2 -5 -13z"/>
<path d="M2797 664 c-10 -11 -8 -107 3 -124 17 -28 31 4 28 65 -3 54 -14 75
-31 59z"/>
<path d="M2895 630 c3 -5 11 -10 16 -10 6 0 7 5 4 10 -3 6 -11 10 -16 10 -6 0
-7 -4 -4 -10z"/>
<path d="M2575 270 c-3 -5 -12 -7 -20 -3 -12 4 -15 -6 -15 -53 0 -69 8 -106
22 -98 5 3 6 -6 2 -23 -5 -19 -3 -25 4 -18 8 8 23 205 15 205 -1 0 -4 -4 -8
-10z"/>
<path d="M2190 115 c0 -9 9 -15 25 -15 16 0 25 6 25 15 0 9 -9 15 -25 15 -16
0 -25 -6 -25 -15z"/>
<path d="M2540 10 c0 -5 19 -10 42 -10 49 0 44 11 -7 17 -20 2 -35 -1 -35 -7z"/>
<path d="M2463 3 c9 -2 23 -2 30 0 6 3 -1 5 -18 5 -16 0 -22 -2 -12 -5z"/>
</g>
</svg>
